<svg xmlns="http://www.w3.org/2000/svg" style="isolation:isolate" width="31.95" height="31.16"><defs><clipPath id="a"><path d="M0 0h31.95v31.16H0z"/></clipPath></defs><g clip-path="url(#a)"><path d="M15.97 0a15.97 15.97 0 0 0-5.05 31.13c.8.15 1.1-.34 1.1-.77l-.03-2.71c-4.44.96-5.38-2.15-5.38-2.15-.72-1.84-1.77-2.33-1.77-2.33-1.45-1 .1-.97.1-.97 1.61.1 2.45 1.64 2.45 1.64 1.43 2.44 3.74 1.74 4.65 1.33a3.41 3.41 0 0 1 1.02-2.14c-3.55-.4-7.28-1.77-7.28-7.9 0-1.73.63-3.16 1.65-4.28-.17-.4-.72-2.03.15-4.22 0 0 1.34-.43 4.4 1.63a15.25 15.25 0 0 1 8 0c3.04-2.06 4.38-1.63 4.38-1.63.87 2.2.33 3.82.16 4.22a6.16 6.16 0 0 1 1.64 4.29c0 6.14-3.73 7.49-7.29 7.88.57.5 1.08 1.47 1.08 2.96l-.02 4.38c0 .43.3.93 1.1.77A15.98 15.98 0 0 0 15.97 0z" fill-rule="evenodd" fill="#FEFEFE"/></g></svg>