<?xml version="1.0" standalone="no"?><!-- Generator: Gravit.io --><svg xmlns="http://www.w3.org/2000/svg" xmlns:xlink="http://www.w3.org/1999/xlink" style="isolation:isolate" viewBox="122.839 88.52 1368.323 129.325" width="1368.323" height="129.325"><g><path d=" M 692.091 192.471 L 668.666 192.471 L 668.666 124.932 L 690.746 124.932 L 690.746 124.932 Q 701.739 124.932 707.282 129.478 L 707.282 129.478 L 707.282 129.478 Q 712.826 134.023 712.826 142.93 L 712.826 142.93 L 712.826 142.93 Q 712.826 147.661 710.135 151.302 L 710.135 151.302 L 710.135 151.302 Q 707.445 154.944 702.806 156.938 L 702.806 156.938 L 702.806 156.938 Q 708.28 158.469 711.457 162.76 L 711.457 162.76 L 711.457 162.76 Q 714.635 167.051 714.635 172.988 L 714.635 172.988 L 714.635 172.988 Q 714.635 182.08 708.744 187.275 L 708.744 187.275 L 708.744 187.275 Q 702.853 192.471 692.091 192.471 L 692.091 192.471 L 692.091 192.471 Z  M 692.416 160.881 L 677.572 160.881 L 677.572 185.188 L 692.276 185.188 L 692.276 185.188 Q 698.492 185.188 702.087 181.964 L 702.087 181.964 L 702.087 181.964 Q 705.682 178.74 705.682 173.081 L 705.682 173.081 L 705.682 173.081 Q 705.682 160.881 692.416 160.881 L 692.416 160.881 L 692.416 160.881 Z  M 677.572 132.261 L 677.572 153.738 L 691.024 153.738 L 691.024 153.738 Q 696.869 153.738 700.371 150.815 L 700.371 150.815 L 700.371 150.815 Q 703.873 147.893 703.873 142.883 L 703.873 142.883 L 703.873 142.883 Q 703.873 137.317 700.626 134.789 L 700.626 134.789 L 700.626 134.789 Q 697.379 132.261 690.746 132.261 L 690.746 132.261 L 677.572 132.261 L 677.572 132.261 Z  M 740.87 124.932 L 758.404 158.84 L 776.031 124.932 L 786.144 124.932 L 762.857 167.283 L 762.857 192.471 L 753.951 192.471 L 753.951 167.283 L 730.665 124.932 L 740.87 124.932 L 740.87 124.932 Z  M 147.656 166.03 L 131.746 166.03 L 131.746 192.471 L 122.839 192.471 L 122.839 124.932 L 147.749 124.932 L 147.749 124.932 Q 158.835 124.932 165.121 130.591 L 165.121 130.591 L 165.121 130.591 Q 171.406 136.25 171.406 145.574 L 171.406 145.574 L 171.406 145.574 Q 171.406 155.408 165.26 160.719 L 165.26 160.719 L 165.26 160.719 Q 159.114 166.03 147.656 166.03 L 147.656 166.03 L 147.656 166.03 Z  M 131.746 132.261 L 131.746 158.748 L 147.749 158.748 L 147.749 158.748 Q 154.893 158.748 158.696 155.385 L 158.696 155.385 L 158.696 155.385 Q 162.5 152.021 162.5 145.667 L 162.5 145.667 L 162.5 145.667 Q 162.5 139.636 158.696 136.018 L 158.696 136.018 L 158.696 136.018 Q 154.893 132.4 148.259 132.261 L 148.259 132.261 L 131.746 132.261 L 131.746 132.261 Z  M 244.724 156.614 L 244.724 160.881 L 244.724 160.881 Q 244.724 170.808 241.384 178.207 L 241.384 178.207 L 241.384 178.207 Q 238.044 185.605 231.921 189.502 L 231.921 189.502 L 231.921 189.502 Q 225.798 193.398 217.634 193.398 L 217.634 193.398 L 217.634 193.398 Q 209.656 193.398 203.486 189.479 L 203.486 189.479 L 203.486 189.479 Q 197.317 185.559 193.907 178.3 L 193.907 178.3 L 193.907 178.3 Q 190.498 171.04 190.405 161.484 L 190.405 161.484 L 190.405 156.614 L 190.405 156.614 Q 190.405 146.873 193.792 139.404 L 193.792 139.404 L 193.792 139.404 Q 197.178 131.936 203.37 127.97 L 203.37 127.97 L 203.37 127.97 Q 209.563 124.004 217.542 124.004 L 217.542 124.004 L 217.542 124.004 Q 225.659 124.004 231.852 127.924 L 231.852 127.924 L 231.852 127.924 Q 238.044 131.843 241.384 139.288 L 241.384 139.288 L 241.384 139.288 Q 244.724 146.733 244.724 156.614 L 244.724 156.614 L 244.724 156.614 Z  M 235.864 161.531 L 235.864 156.521 L 235.864 156.521 Q 235.864 144.507 231.04 138.082 L 231.04 138.082 L 231.04 138.082 Q 226.216 131.658 217.542 131.658 L 217.542 131.658 L 217.542 131.658 Q 209.099 131.658 204.252 138.082 L 204.252 138.082 L 204.252 138.082 Q 199.404 144.507 199.265 155.918 L 199.265 155.918 L 199.265 160.881 L 199.265 160.881 Q 199.265 172.524 204.159 179.181 L 204.159 179.181 L 204.159 179.181 Q 209.053 185.837 217.634 185.837 L 217.634 185.837 L 217.634 185.837 Q 226.262 185.837 230.994 179.552 L 230.994 179.552 L 230.994 179.552 Q 235.725 173.267 235.864 161.531 L 235.864 161.531 L 235.864 161.531 Z  M 271.98 124.932 L 282.649 171.179 L 283.948 180.085 L 285.85 172.061 L 299.209 124.932 L 306.724 124.932 L 319.758 172.061 L 321.614 180.225 L 323.052 171.133 L 333.535 124.932 L 342.488 124.932 L 326.113 192.471 L 317.996 192.471 L 304.08 143.254 L 303.013 138.105 L 301.946 143.254 L 287.52 192.471 L 279.402 192.471 L 263.074 124.932 L 271.98 124.932 L 271.98 124.932 Z  M 400.544 153.97 L 400.544 161.252 L 371.274 161.252 L 371.274 185.188 L 405.276 185.188 L 405.276 192.471 L 362.368 192.471 L 362.368 124.932 L 404.812 124.932 L 404.812 132.261 L 371.274 132.261 L 371.274 153.97 L 400.544 153.97 L 400.544 153.97 Z  M 465.791 192.471 L 451.133 165.149 L 435.269 165.149 L 435.269 192.471 L 426.316 192.471 L 426.316 124.932 L 448.674 124.932 L 448.674 124.932 Q 460.085 124.932 466.232 130.127 L 466.232 130.127 L 466.232 130.127 Q 472.378 135.322 472.378 145.249 L 472.378 145.249 L 472.378 145.249 Q 472.378 151.558 468.969 156.243 L 468.969 156.243 L 468.969 156.243 Q 465.559 160.928 459.482 163.247 L 459.482 163.247 L 475.347 191.914 L 475.347 192.471 L 465.791 192.471 L 465.791 192.471 Z  M 435.269 132.261 L 435.269 157.866 L 448.953 157.866 L 448.953 157.866 Q 455.586 157.866 459.506 154.434 L 459.506 154.434 L 459.506 154.434 Q 463.425 151.001 463.425 145.249 L 463.425 145.249 L 463.425 145.249 Q 463.425 138.987 459.691 135.647 L 459.691 135.647 L 459.691 135.647 Q 455.957 132.307 448.906 132.261 L 448.906 132.261 L 435.269 132.261 L 435.269 132.261 Z  M 533.032 153.97 L 533.032 161.252 L 503.762 161.252 L 503.762 185.188 L 537.764 185.188 L 537.764 192.471 L 494.856 192.471 L 494.856 124.932 L 537.3 124.932 L 537.3 132.261 L 503.762 132.261 L 503.762 153.97 L 533.032 153.97 L 533.032 153.97 Z  M 577.544 192.471 L 558.85 192.471 L 558.85 124.932 L 577.915 124.932 L 577.915 124.932 Q 586.729 124.932 593.501 128.828 L 593.501 128.828 L 593.501 128.828 Q 600.273 132.725 603.961 139.915 L 603.961 139.915 L 603.961 139.915 Q 607.649 147.104 607.695 156.428 L 607.695 156.428 L 607.695 160.742 L 607.695 160.742 Q 607.695 170.298 604.008 177.488 L 604.008 177.488 L 604.008 177.488 Q 600.32 184.678 593.478 188.528 L 593.478 188.528 L 593.478 188.528 Q 586.636 192.378 577.544 192.471 L 577.544 192.471 L 577.544 192.471 Z  M 578.147 132.261 L 567.756 132.261 L 567.756 185.188 L 577.126 185.188 L 577.126 185.188 Q 587.424 185.188 593.153 178.787 L 593.153 178.787 L 593.153 178.787 Q 598.882 172.385 598.882 160.557 L 598.882 160.557 L 598.882 156.614 L 598.882 156.614 Q 598.882 145.11 593.478 138.732 L 593.478 138.732 L 593.478 138.732 Q 588.074 132.354 578.147 132.261 L 578.147 132.261 L 578.147 132.261 Z " fill-rule="evenodd" fill="rgb(255,255,255)"/><path d=" M 1159.6 161.523 L 1197.725 161.523 L 1178.663 109.102 L 1159.6 161.523 L 1159.6 161.523 Z  M 1217.725 216.445 L 1200.303 168.555 L 1157.022 168.555 L 1139.6 216.445 L 1132.1 216.445 L 1178.663 88.555 L 1225.147 216.445 L 1217.725 216.445 L 1217.725 216.445 Z  M 1269.053 173.086 L 1247.803 173.086 L 1247.803 216.445 L 1240.772 216.445 L 1240.772 91.445 L 1273.584 91.445 L 1273.584 91.445 Q 1287.881 93.398 1297.881 103.398 L 1297.881 103.398 L 1297.881 103.398 Q 1309.834 115.352 1309.834 132.227 L 1309.834 132.227 L 1309.834 132.227 Q 1309.834 149.18 1297.881 161.133 L 1297.881 161.133 L 1297.881 161.133 Q 1285.928 173.086 1269.053 173.086 L 1269.053 173.086 L 1269.053 173.086 Z  M 1269.053 98.555 L 1247.803 98.555 L 1247.803 165.977 L 1269.053 165.977 L 1269.053 165.977 Q 1282.959 165.977 1292.842 156.094 L 1292.842 156.094 L 1292.842 156.094 Q 1302.725 146.211 1302.725 132.227 L 1302.725 132.227 L 1302.725 132.227 Q 1302.725 118.242 1292.842 108.398 L 1292.842 108.398 L 1292.842 108.398 Q 1282.959 98.555 1269.053 98.555 L 1269.053 98.555 L 1269.053 98.555 Z  M 1354.131 173.086 L 1332.881 173.086 L 1332.881 216.445 L 1325.85 216.445 L 1325.85 91.445 L 1358.663 91.445 L 1358.663 91.445 Q 1372.959 93.398 1382.959 103.398 L 1382.959 103.398 L 1382.959 103.398 Q 1394.913 115.352 1394.913 132.227 L 1394.913 132.227 L 1394.913 132.227 Q 1394.913 149.18 1382.959 161.133 L 1382.959 161.133 L 1382.959 161.133 Q 1371.006 173.086 1354.131 173.086 L 1354.131 173.086 L 1354.131 173.086 Z  M 1354.131 98.555 L 1332.881 98.555 L 1332.881 165.977 L 1354.131 165.977 L 1354.131 165.977 Q 1368.038 165.977 1377.92 156.094 L 1377.92 156.094 L 1377.92 156.094 Q 1387.803 146.211 1387.803 132.227 L 1387.803 132.227 L 1387.803 132.227 Q 1387.803 118.242 1377.92 108.398 L 1377.92 108.398 L 1377.92 108.398 Q 1368.038 98.555 1354.131 98.555 L 1354.131 98.555 L 1354.131 98.555 Z  M 1410.928 216.445 L 1479.053 98.477 L 1410.928 98.477 L 1410.928 91.445 L 1491.163 91.445 L 1422.959 209.414 L 1491.163 209.414 L 1491.163 216.445 L 1410.928 216.445 L 1410.928 216.445 Z  M 954.594 89.92 L 954.594 216.445 L 937.619 216.445 L 937.619 160.97 L 871.294 160.97 L 871.294 216.445 L 854.319 216.445 L 854.319 89.92 L 871.294 89.92 L 871.294 144.695 L 937.619 144.695 L 937.619 89.92 L 954.594 89.92 L 954.594 89.92 Z  M 1117.869 199.82 L 1117.869 216.445 L 1060.994 216.445 L 1060.994 216.445 Q 1054.344 217.845 1047.694 217.845 L 1047.694 217.845 L 1047.694 217.845 Q 1030.194 217.845 1015.319 209.27 L 1015.319 209.27 L 1015.319 209.27 Q 1000.444 200.695 991.781 185.908 L 991.781 185.908 L 991.781 185.908 Q 983.119 171.12 983.119 153.27 L 983.119 153.27 L 983.119 153.27 Q 983.119 135.945 991.869 121.07 L 991.869 121.07 L 991.869 121.07 Q 1000.619 106.195 1015.406 97.358 L 1015.406 97.358 L 1015.406 97.358 Q 1030.194 88.52 1047.694 88.52 L 1047.694 88.52 L 1047.694 88.52 Q 1065.019 88.52 1079.894 97.358 L 1079.894 97.358 L 1079.894 97.358 Q 1094.769 106.195 1103.606 121.07 L 1103.606 121.07 L 1103.606 121.07 Q 1112.444 135.945 1112.444 153.27 L 1112.444 153.27 L 1112.444 153.27 Q 1112.444 166.745 1107.194 178.82 L 1107.194 178.82 L 1107.194 178.82 Q 1101.944 190.895 1092.494 199.82 L 1092.494 199.82 L 1117.869 199.82 L 1117.869 199.82 Z  M 1000.619 153.445 L 1000.619 153.445 Q 1000.619 166.395 1006.919 177.42 L 1006.919 177.42 L 1006.919 177.42 Q 1013.219 188.445 1024.156 194.92 L 1024.156 194.92 L 1024.156 194.92 Q 1035.094 201.395 1048.044 201.395 L 1048.044 201.395 L 1048.044 201.395 Q 1060.994 201.395 1071.756 195.008 L 1071.756 195.008 L 1071.756 195.008 Q 1082.519 188.62 1088.731 177.508 L 1088.731 177.508 L 1088.731 177.508 Q 1094.944 166.395 1094.944 153.27 L 1094.944 153.27 L 1094.944 153.27 Q 1094.944 140.32 1088.644 129.295 L 1088.644 129.295 L 1088.644 129.295 Q 1082.344 118.27 1071.494 111.795 L 1071.494 111.795 L 1071.494 111.795 Q 1060.644 105.32 1047.694 105.32 L 1047.694 105.32 L 1047.694 105.32 Q 1034.744 105.32 1023.894 111.883 L 1023.894 111.883 L 1023.894 111.883 Q 1013.044 118.445 1006.831 129.47 L 1006.831 129.47 L 1006.831 129.47 Q 1000.619 140.495 1000.619 153.445 L 1000.619 153.445 L 1000.619 153.445 Z " fill-rule="evenodd" fill="rgb(255,255,255)"/></g></svg>